<?xml version="1.0" encoding="UTF-8" standalone="no"?>
<svg
   xmlns:dc="http://purl.org/dc/elements/1.1/"
   xmlns:cc="http://creativecommons.org/ns#"
   xmlns:rdf="http://www.w3.org/1999/02/22-rdf-syntax-ns#"
   xmlns:svg="http://www.w3.org/2000/svg"
   xmlns="http://www.w3.org/2000/svg"
   xmlns:xlink="http://www.w3.org/1999/xlink"
   viewBox="0 0 320 320"
   height="320"
   width="320"
   version="1.1"
   id="svg3735">
  <metadata
     id="metadata3741">
    <rdf:RDF>
      <cc:Work
         rdf:about="">
        <dc:format>image/svg+xml</dc:format>
        <dc:type
           rdf:resource="http://purl.org/dc/dcmitype/StillImage" />
        <dc:title></dc:title>
      </cc:Work>
    </rdf:RDF>
  </metadata>
  <defs
     id="defs3739" />
  <path
     id="path3745"
     d="m 26.460341,303.56784 c -3.169728,-1.56898 -6.797499,-4.7698 -8.75,-7.72023 C 14.5975,291.14379 14.375,289.87814 14.375,276.875 c 0,-13.02355 0.218896,-14.26335 3.35502,-19.00235 2.021042,-3.054 5.532766,-6.12401 8.832156,-7.72121 C 32.03684,247.5012 32.098446,247.5 163.125,247.5 c 131.02655,0 131.08816,0.001 136.56282,2.65144 3.29939,1.5972 6.81112,4.66721 8.83215,7.72121 3.13613,4.739 3.35503,5.9788 3.35503,19.00235 0,13.02355 -0.2189,14.26335 -3.35503,19.00235 -2.02103,3.054 -5.53276,6.12401 -8.83215,7.72121 -5.47477,2.6503 -5.53371,2.65144 -136.64497,2.65045 L 31.875,306.24802 26.460341,303.56784 Z M 28.125,185.13745 c -10.251366,-4.73131 -14.38899,-12.59985 -14.347547,-27.2848 0.04131,-14.6384 4.570464,-22.7008 15.261958,-27.16799 C 33.117544,128.98071 49.107157,128.75 163.125,128.75 c 114.01784,0 130.00745,0.23071 134.08559,1.93466 10.6915,4.46719 15.22065,12.52959 15.26196,27.16799 0.0415,14.68495 -4.09619,22.55349 -14.34755,27.2848 -4.75958,2.19669 -11.25091,2.30765 -135,2.30765 -123.749086,0 -130.24042,-0.111 -135,-2.30765 z m 0,-118.750004 C 17.873634,61.656135 13.73601,53.787596 13.777453,39.102649 13.818764,24.464249 18.347917,16.401851 29.039411,11.93466 33.117544,10.230707 49.107157,10 163.125,10 c 114.01784,0 130.00745,0.230707 134.08559,1.93466 10.6915,4.467191 15.22065,12.529589 15.26196,27.167989 0.0415,14.684947 -4.09619,22.553486 -14.34755,27.284797 -4.75958,2.196688 -11.25091,2.307649 -135,2.307649 -123.749086,0 -130.24042,-0.110962 -135,-2.307649 z"
     style="fill:#ffffff" />
</svg>
