<?xml version="1.0" encoding="UTF-8" standalone="no"?>
<!-- Created with Inkscape (http://www.inkscape.org/) -->

<svg
   xmlns:dc="http://purl.org/dc/elements/1.1/"
   xmlns:cc="http://creativecommons.org/ns#"
   xmlns:rdf="http://www.w3.org/1999/02/22-rdf-syntax-ns#"
   xmlns:svg="http://www.w3.org/2000/svg"
   xmlns="http://www.w3.org/2000/svg"
   xmlns:sodipodi="http://sodipodi.sourceforge.net/DTD/sodipodi-0.dtd"
   xmlns:inkscape="http://www.inkscape.org/namespaces/inkscape"
   version="1.1"
   width="128"
   height="128"
   id="svg3039"
   inkscape:version="0.48.5 r10040"
   sodipodi:docname="saveBtn.svg">
  <sodipodi:namedview
     pagecolor="#ffffff"
     bordercolor="#666666"
     borderopacity="1"
     objecttolerance="10"
     gridtolerance="10"
     guidetolerance="10"
     inkscape:pageopacity="0"
     inkscape:pageshadow="2"
     inkscape:window-width="985"
     inkscape:window-height="777"
     id="namedview8"
     showgrid="false"
     inkscape:zoom="3.6875"
     inkscape:cx="64"
     inkscape:cy="64"
     inkscape:window-x="467"
     inkscape:window-y="69"
     inkscape:window-maximized="0"
     inkscape:current-layer="svg3039" />
  <metadata
     id="metadata3045">
    <rdf:RDF>
      <cc:Work
         rdf:about="">
        <dc:format>image/svg+xml</dc:format>
        <dc:type
           rdf:resource="http://purl.org/dc/dcmitype/StillImage" />
        <dc:title />
      </cc:Work>
    </rdf:RDF>
  </metadata>
  <defs
     id="defs3043" />
  <path
     d="m 62.905268,9.7579623 c -30.1469,0 -54.5937497,23.7409637 -54.5937497,53.0312497 0,29.290286 24.4468497,53.062498 54.5937497,53.062498 30.1469,0 54.562502,-23.772212 54.562502,-53.062498 0,-29.290286 -24.415602,-53.0312497 -54.562502,-53.0312497 z m -23.1875,16.0937497 46.375,0 c -0.28809,0 10.25,10.25 10.25,10.25 l 0,42.75 c 2.2788,2.714366 3.65625,6.209827 3.65625,10.03125 0,8.626049 -6.99896,15.624998 -15.625,15.624998 -4.74125,0 -8.9793,-2.13355 -11.84375,-5.468748 l -32.8125,0 c -5.67801,0 -10.25,-4.571986 -10.25,-10.25 l 0,-52.6875 c 0,-5.678014 4.57199,-10.25 10.25,-10.25 z m 1.072564,2.886123 c -7.644463,0 -8.269068,3.747227 -8.269068,9.082627 l 0,49.5 c 0,5.238697 1.516562,8.851357 8.259004,8.811441 l 0,-35.186441 45,0 0,12.40625 c 3.2538,0.291548 5.138264,1.281068 7.509004,3.260063 L 93.48103,37.165759 c 0,0 -6.491221,-5.738934 -8.291211,-7.655088 l -0.0658,19.028541 -40.625,0 -0.271186,-19.801377 z m 2.678495,35.083686 0,32.550318 27.561441,0 c -1.41946,-2.3525 -2.28125,-4.540973 -2.28125,-7.488877 0,-8.404196 5.836301,-15.246768 14.155191,-15.59375 l 0,-9.467691 z"
     id="path3051-8"
     style="fill:#000000;fill-opacity:1;stroke:#000000;stroke-width:1.38775134;stroke-opacity:1"
     inkscape:connector-curvature="0"
     sodipodi:nodetypes="sssssscccsscsssssssccccccccccscccsccc" />
  <path
     d="m 87.959248,76.143127 0,12.737269 7.61993,0 -11.654,12.739314 -10.75753,-12.739314 7.84404,0 0,-12.737269 z"
     id="rect3087-6"
     style="fill:#000000;fill-opacity:1;stroke:#000000;stroke-width:0.44001365;stroke-opacity:1" />
  <path
     d="m 70.242962,28.636031 11.38623,0 0,16.80997 -11.38623,0 z"
     id="rect3889-7"
     style="fill:#000000;fill-opacity:1;stroke:#000000;stroke-width:1.00359666;stroke-opacity:1" />
</svg>
