<?xml version="1.0" encoding="UTF-8" standalone="no"?>
<!-- Created with Inkscape (http://www.inkscape.org/) -->

<svg
   xmlns:dc="http://purl.org/dc/elements/1.1/"
   xmlns:cc="http://creativecommons.org/ns#"
   xmlns:rdf="http://www.w3.org/1999/02/22-rdf-syntax-ns#"
   xmlns:svg="http://www.w3.org/2000/svg"
   xmlns="http://www.w3.org/2000/svg"
   xmlns:xlink="http://www.w3.org/1999/xlink"
   xmlns:sodipodi="http://sodipodi.sourceforge.net/DTD/sodipodi-0.dtd"
   xmlns:inkscape="http://www.inkscape.org/namespaces/inkscape"
   version="1.1"
   width="1024"
   height="1024"
   id="svg2"
   inkscape:version="0.48.3.1 r9886"
   sodipodi:docname="emuIconNew.svg">
  <sodipodi:namedview
     pagecolor="#ffffff"
     bordercolor="#666666"
     borderopacity="1"
     objecttolerance="10"
     gridtolerance="10"
     guidetolerance="10"
     inkscape:pageopacity="0"
     inkscape:pageshadow="2"
     inkscape:window-width="1920"
     inkscape:window-height="1124"
     id="namedview71"
     showgrid="false"
     inkscape:zoom="0.28348747"
     inkscape:cx="1255.4634"
     inkscape:cy="207.00686"
     inkscape:window-x="0"
     inkscape:window-y="24"
     inkscape:window-maximized="1"
     inkscape:current-layer="svg2" />
  <defs
     id="defs4">
    <linearGradient
       id="linearGradient3902">
      <stop
         id="stop3904"
         style="stop-color:#ffffff;stop-opacity:1"
         offset="0" />
      <stop
         id="stop3906"
         style="stop-color:#fff9f9;stop-opacity:0.72868216"
         offset="1" />
    </linearGradient>
    <linearGradient
       id="linearGradient4110">
      <stop
         id="stop4112"
         style="stop-color:#0eb0fb;stop-opacity:1"
         offset="0" />
      <stop
         id="stop4114"
         style="stop-color:#ff00f3;stop-opacity:1"
         offset="1" />
    </linearGradient>
    <linearGradient
       id="linearGradient4483">
      <stop
         id="stop4485"
         style="stop-color:#056aff;stop-opacity:1"
         offset="0" />
      <stop
         id="stop4487"
         style="stop-color:#ffffff;stop-opacity:0"
         offset="1" />
    </linearGradient>
    <linearGradient
       x1="511.68015"
       y1="0"
       x2="511.68015"
       y2="1461.4401"
       id="linearGradient4116"
       xlink:href="#linearGradient4110"
       gradientUnits="userSpaceOnUse"
       gradientTransform="scale(1,1.001095)" />
    <linearGradient
       x1="509.1376"
       y1="513.90118"
       x2="467.15973"
       y2="1029.1136"
       id="linearGradient3908"
       xlink:href="#linearGradient3902"
       gradientUnits="userSpaceOnUse"
       gradientTransform="matrix(1.2524295,0,0,1.2524296,-80.971746,-167.16162)" />
    <filter
       color-interpolation-filters="sRGB"
       id="filter4143">
      <feFlood
         id="feFlood4145"
         result="flood"
         flood-color="rgb(0,0,0)"
         flood-opacity="0.5" />
      <feComposite
         in2="SourceGraphic"
         operator="in"
         in="flood"
         result="composite1"
         id="feComposite4147" />
      <feGaussianBlur
         id="feGaussianBlur4149"
         result="blur"
         stdDeviation="2" />
      <feOffset
         id="feOffset4151"
         result="offset"
         dy="4"
         dx="4" />
      <feComposite
         in2="offset"
         operator="over"
         in="SourceGraphic"
         result="composite2"
         id="feComposite4153" />
    </filter>
  </defs>
  <metadata
     id="metadata7">
    <rdf:RDF>
      <cc:Work
         rdf:about="">
        <dc:format>image/svg+xml</dc:format>
        <dc:type
           rdf:resource="http://purl.org/dc/dcmitype/StillImage" />
        <dc:title />
      </cc:Work>
    </rdf:RDF>
  </metadata>
  <g
     id="g4113">
    <rect
       ry="213.08093"
       y="2.0428569"
       x="1.9583879"
       height="1022.4926"
       width="1022.4926"
       id="rect3246"
       style="color:#000000;fill:#0dc5ff;fill-opacity:1;fill-rule:nonzero;stroke:none;stroke-width:3.99999976;marker:none;visibility:visible;display:inline;overflow:visible;enable-background:accumulate" />
    <g
       style="display:inline"
       id="layer3">
      <path
         style="fill:#ffffff;fill-opacity:1;filter:url(#filter4143)"
         id="path4020"
         d="m 150.37797,931.73156 c 0.008,-1.67416 4.52844,-7.96341 14.76814,-20.54535 10.88626,-13.37643 17.7431,-23.44227 16.8902,-24.79485 -0.26405,-0.41874 -2.99547,0.10407 -6.06983,1.16182 -6.31029,2.17108 -14.22601,2.78333 -15.82036,1.22362 -1.68406,-1.64748 0.22786,-5.19461 5.50358,-10.21066 6.72398,-6.39304 10.84492,-8.925 19.78332,-12.15514 15.41811,-5.57178 18.24664,-7.6031 29.19591,-20.96713 18.07993,-22.06735 29.91736,-39.83893 58.66769,-88.07799 11.01275,-18.47788 19.08827,-33.32578 23.40586,-43.03449 17.42544,-39.1836 19.51097,-43.22308 25.04636,-48.5119 4.74869,-4.53714 5.23235,-5.38533 5.23235,-9.17593 0,-7.1383 -5.7648,-10.10035 -19.79099,-10.16906 -10.31686,-0.0505 -16.26052,-2.49394 -21.36172,-8.78172 -1.78363,-2.19852 -5.31421,-5.97285 -7.84563,-8.3874 -3.67645,-3.50671 -5.58284,-6.65005 -9.47384,-15.62131 -6.59612,-15.20823 -7.87735,-19.86837 -7.87735,-28.65154 0,-14.22471 6.33375,-66.99326 9.27381,-77.26358 1.86393,-6.51089 9.93594,-24.81695 12.94675,-29.36103 20.37194,-30.74696 24.50883,-34.80141 69.49791,-68.11423 29.66351,-21.96483 42.63855,-29.03066 75.0383,-40.8637 37.54603,-13.71257 52.72612,-14.51419 106.70243,-5.63469 35.97247,5.91772 42.73184,6.54283 65.43099,6.05118 17.10705,-0.37053 20.52191,-0.70643 26.03224,-2.56056 7.88066,-2.65174 22.098,-10.7608 33.70175,-19.22231 10.04912,-7.32784 30.44839,-25.29944 33.95155,-29.91106 1.28913,-1.69706 5.45197,-9.32559 9.25068,-16.95226 5.76528,-11.57482 8.54914,-15.84239 16.84332,-25.82069 5.46515,-6.57472 11.34557,-14.10575 13.06763,-16.73564 13.09964,-20.00473 16.82234,-28.51195 19.45885,-44.46896 6.2114,-37.59186 6.21677,-37.6901 3.48541,-63.11725 -1.29499,-12.05501 -0.77522,-33.58864 1.01573,-42.07817 2.68716,-12.737704 14.13509,-29.360177 24.20334,-35.14319 12.77199,-7.336032 29.56857,0.696307 58.36105,27.90906 5.80597,5.48739 10.32789,10.20095 10.04863,10.47457 -0.27915,0.27364 -5.97945,-1.36022 -12.66739,-3.63079 -14.48196,-4.91664 -21.15575,-6.0105 -23.9158,-3.91982 -1.86851,1.41539 -1.85846,1.4804 0.5351,3.46261 1.34162,1.11108 5.42232,3.4926 9.06812,5.29225 8.11797,4.00712 19.23093,10.92747 21.08931,13.13287 1.00353,1.19101 1.08275,1.91483 0.29398,2.68791 -0.78878,0.77306 -2.02171,0.2471 -4.57851,-1.95318 -3.36587,-2.89649 -3.83081,-3.01114 -12.21261,-3.01114 -18.37316,0 -28.30705,6.83512 -34.52009,23.752 -4.07904,11.1063 -5.39813,22.18775 -6.963,58.49169 -1.52458,35.36918 -3.68874,65.25141 -5.43695,75.07127 -3.73236,20.96549 -19.74065,60.49557 -34.33452,84.7841 -2.95285,4.9145 -8.32482,12.96781 -11.93755,17.89626 -8.32043,11.35046 -11.5575,18.18138 -25.7724,54.38527 -27.3241,69.59179 -42.89517,100.07279 -65.00703,127.25384 -8.81033,10.83022 -14.19606,14.22502 -35.77264,22.54881 -10.3518,3.99353 -22.54675,9.31019 -27.09978,11.81477 -20.09181,11.05236 -40.80467,38.46961 -50.98581,67.48897 -2.88133,8.21253 -3.10936,9.84251 -3.47633,24.85253 -0.45703,18.69674 0.0693,20.78041 6.04385,23.91328 3.58308,1.87891 5.40135,2.09414 17.17956,2.03348 10.45327,-0.0538 16.69696,-0.7055 30.24758,-3.15699 9.39139,-1.69904 27.61311,-4.36833 40.49273,-5.93177 30.91469,-3.75269 33.1491,-4.20871 46.83497,-9.55863 15.43738,-6.03461 16.04672,-6.15074 22.15088,-4.22079 8.81785,2.78796 13.06579,5.78119 17.9898,12.67618 2.52734,3.539 6.6409,8.80145 9.14131,11.69433 7.29971,8.44573 13.42622,16.97221 20.05912,27.91735 6.55134,10.81064 13.44729,23.72403 12.66885,23.72403 -0.25486,0 -3.00367,-0.9315 -6.10825,-2.06999 -3.73928,-1.37121 -7.26274,-3.6474 -10.43766,-6.74287 -4.15143,-4.04752 -5.24873,-4.63438 -8.19904,-4.38518 -5.17507,0.43711 -7.50287,4.11189 -7.50287,11.84426 0,4.73398 -0.30033,6.0436 -1.29947,5.6678 -0.71472,-0.2688 -1.45365,-0.48874 -1.64205,-0.48874 -0.18842,0 -2.5369,-3.55034 -5.21879,-7.88965 -5.99194,-9.69484 -9.82275,-13.34221 -21.18277,-20.16841 -6.39111,-3.84037 -9.92228,-6.72485 -12.69891,-10.37317 -4.57988,-6.0176 -5.0331,-6.1398 -26.25899,-7.08093 -25.44954,-1.12841 -48.21338,1.99497 -74.55757,10.22984 -26.3269,8.2295 -51.63057,12.11176 -62.1897,9.54159 -12.052,-2.93357 -15.74348,-9.4672 -14.61895,-25.87461 0.34346,-5.01111 2.59027,-21.141 4.9929,-35.84423 8.6917,-53.19068 8.17475,-62.69713 -3.71586,-68.33883 -10.27608,-4.8756 -22.92338,-1.24439 -52.58172,15.09689 -10.65846,5.8727 -15.66248,8.05343 -21.00909,9.15574 -4.63003,0.95461 -10.76375,3.38015 -18.0259,7.1283 -6.05429,3.12472 -14.95948,6.8715 -19.78933,8.32615 -8.76945,2.64117 -8.79688,2.6594 -19.87832,13.22554 -22.69622,21.64076 -44.39818,50.32649 -81.91318,108.27317 -8.17953,12.6343 -16.33272,27.4967 -31.39591,57.23171 -11.19092,22.09103 -21.90461,42.56901 -23.80806,45.50659 -2.96236,4.57169 -4.48793,5.83856 -10.59046,8.79461 -5.2314,2.53408 -10.14301,6.20429 -18.44808,13.78537 -13.01242,11.87806 -18.01518,15.06705 -32.68339,20.83382 -11.1206,4.37205 -16.92349,5.96228 -16.91739,4.63608 z" />
    </g>
  </g>
  <g
     transform="translate(50.25,211.52169)"
     id="layer1"
     style="display:none">
    <path
       d="m 301.95446,-211.52169 319.59108,0 c 101.4156,0 152.12339,0 206.7084,17.25959 59.59748,21.69173 106.54481,68.63899 128.23654,128.236542 C 973.75,-11.44076 973.75,39.267072 973.75,140.68273 l 0,319.59116 c 0,101.41566 0,152.12349 -17.25952,206.70829 -21.69173,59.59758 -68.63906,106.54477 -128.23654,128.23654 -54.58501,17.25959 -105.2928,17.25959 -206.7084,17.25959 l -319.59108,0 c -101.4156,0 -152.12339,0 -206.708396,-17.25959 C 35.648581,773.52695 -11.298747,726.57976 -32.99048,666.98218 -50.25,612.39738 -50.25,561.68955 -50.25,460.27389 l 0,-319.59116 c 0,-101.415658 0,-152.12349 17.25952,-206.708254 21.691733,-59.597546 68.639061,-106.544846 128.236544,-128.236576 54.585006,-17.25959 105.292796,-17.25959 206.708396,-17.25959 l 0,0"
       id="path5"
       style="fill:none;stroke:#000000;stroke-opacity:1" />
  </g>
  <g
     transform="translate(0,-2.2054443)"
     id="layer2"
     style="display:none">
    <path
       d="m 0.99801512,321.03518 0,386.27669"
       id="path4024"
       style="color:#000000;fill:none;stroke:#000000;stroke-width:2;stroke-linecap:butt;stroke-linejoin:miter;stroke-miterlimit:4;stroke-opacity:1;stroke-dasharray:none;stroke-dashoffset:0;marker:none;visibility:visible;display:inline;overflow:visible;enable-background:accumulate" />
    <path
       d="m 600.32144,298.86218 a 138,138 0 1 1 -276,0 138,138 0 1 1 276,0 z"
       transform="matrix(1.988799,0,0,1.988471,-407.91018,-80.585593)"
       id="path3129"
       style="color:#000000;fill:none;stroke:#000000;stroke-width:1.00571477;stroke-linecap:butt;stroke-linejoin:miter;stroke-miterlimit:4;stroke-opacity:1;stroke-dasharray:none;stroke-dashoffset:0;marker:none;visibility:visible;display:inline;overflow:visible;enable-background:accumulate" />
    <path
       d="m 600.32144,298.86218 a 138,138 0 1 1 -276,0 138,138 0 1 1 276,0 z"
       transform="matrix(3.2215081,0,0,3.2211587,-977.38931,-448.55899)"
       id="path3129-9"
       style="color:#000000;fill:none;stroke:#000000;stroke-width:0.62086099;stroke-linecap:butt;stroke-linejoin:miter;stroke-miterlimit:4;stroke-opacity:1;stroke-dasharray:none;stroke-dashoffset:0;marker:none;visibility:visible;display:inline;overflow:visible;enable-background:accumulate" />
    <path
       d="M 67.351921,69.489974 956.5625,958.70544"
       id="path4011"
       style="color:#000000;fill:none;stroke:#000000;stroke-width:2;stroke-linecap:butt;stroke-linejoin:miter;stroke-miterlimit:4;stroke-opacity:1;stroke-dasharray:none;stroke-dashoffset:0;marker:none;visibility:visible;display:inline;overflow:visible;enable-background:accumulate" />
    <path
       d="m 0.99801467,707.31189 1022.00298533,0"
       id="path4028"
       style="color:#000000;fill:none;stroke:#000000;stroke-width:2;stroke-linecap:butt;stroke-linejoin:miter;stroke-miterlimit:4;stroke-opacity:1;stroke-dasharray:none;stroke-dashoffset:0;marker:none;visibility:visible;display:inline;overflow:visible;enable-background:accumulate" />
    <path
       d="m 0.99801467,513.69318 1022.00298533,0"
       id="path4030"
       style="color:#000000;fill:none;stroke:#000000;stroke-width:2;stroke-linecap:butt;stroke-linejoin:miter;stroke-miterlimit:4;stroke-opacity:1;stroke-dasharray:none;stroke-dashoffset:0;marker:none;visibility:visible;display:inline;overflow:visible;enable-background:accumulate" />
    <path
       d="m 0.99801467,321.0352 1022.00298533,0"
       id="path4032"
       style="color:#000000;fill:none;stroke:#000000;stroke-width:2;stroke-linecap:butt;stroke-linejoin:miter;stroke-miterlimit:4;stroke-opacity:1;stroke-dasharray:none;stroke-dashoffset:0;marker:none;visibility:visible;display:inline;overflow:visible;enable-background:accumulate" />
    <path
       d="m 319.08193,1026.2054 0,-1023.9999557"
       id="path4034"
       style="color:#000000;fill:none;stroke:#000000;stroke-width:2;stroke-linecap:butt;stroke-linejoin:miter;stroke-miterlimit:4;stroke-opacity:1;stroke-dasharray:none;stroke-dashoffset:0;marker:none;visibility:visible;display:inline;overflow:visible;enable-background:accumulate" />
    <path
       d="m 511.68014,2.2054443 0,1023.9999557"
       id="path4036"
       style="color:#000000;fill:none;stroke:#000000;stroke-width:2;stroke-linecap:butt;stroke-linejoin:miter;stroke-miterlimit:4;stroke-opacity:1;stroke-dasharray:none;stroke-dashoffset:0;marker:none;visibility:visible;display:inline;overflow:visible;enable-background:accumulate" />
    <path
       d="m 706.1875,1026.2054 0,-1023.9999557"
       id="path4038"
       style="color:#000000;fill:none;stroke:#000000;stroke-width:2;stroke-linecap:butt;stroke-linejoin:miter;stroke-miterlimit:4;stroke-opacity:1;stroke-dasharray:none;stroke-dashoffset:0;marker:none;visibility:visible;display:inline;overflow:visible;enable-background:accumulate" />
    <path
       d="M 67.351921,958.70544 956.5625,69.489974"
       id="path4001"
       style="color:#000000;fill:none;stroke:#000000;stroke-width:2;stroke-linecap:butt;stroke-linejoin:miter;stroke-miterlimit:4;stroke-opacity:1;stroke-dasharray:none;stroke-dashoffset:0;marker:none;visibility:visible;display:inline;overflow:visible;enable-background:accumulate" />
    <path
       d="m 956.5625,69.489974 0,889.215466"
       id="path4003"
       style="color:#000000;fill:none;stroke:#000000;stroke-width:2;stroke-linecap:butt;stroke-linejoin:miter;stroke-miterlimit:4;stroke-opacity:1;stroke-dasharray:none;stroke-dashoffset:0;marker:none;visibility:visible;display:inline;overflow:visible;enable-background:accumulate" />
    <path
       d="m 67.351921,69.489974 889.210579,0"
       id="path4009"
       style="color:#000000;fill:none;stroke:#000000;stroke-width:2;stroke-linecap:butt;stroke-linejoin:miter;stroke-miterlimit:4;stroke-opacity:1;stroke-dasharray:none;stroke-dashoffset:0;marker:none;visibility:visible;display:inline;overflow:visible;enable-background:accumulate" />
    <path
       d="m 67.351921,958.70544 0,-889.215466"
       id="path4007"
       style="color:#000000;fill:none;stroke:#000000;stroke-width:2;stroke-linecap:butt;stroke-linejoin:miter;stroke-miterlimit:4;stroke-opacity:1;stroke-dasharray:none;stroke-dashoffset:0;marker:none;visibility:visible;display:inline;overflow:visible;enable-background:accumulate" />
    <path
       d="m 956.5625,958.70544 -889.210579,-3e-5"
       id="path4005"
       style="color:#000000;fill:none;stroke:#000000;stroke-width:2;stroke-linecap:butt;stroke-linejoin:miter;stroke-miterlimit:4;stroke-opacity:1;stroke-dasharray:none;stroke-dashoffset:0;marker:none;visibility:visible;display:inline;overflow:visible;enable-background:accumulate" />
    <path
       d="m 600.32144,298.86218 a 138,138 0 1 1 -276,0 138,138 0 1 1 276,0 z"
       transform="matrix(1.4025564,0,0,1.3964479,-135.79717,96.569794)"
       id="path3129-7"
       style="color:#000000;fill:none;stroke:#000000;stroke-width:1.42908275;stroke-linecap:butt;stroke-linejoin:miter;stroke-miterlimit:4;stroke-opacity:1;stroke-dasharray:none;stroke-dashoffset:0;marker:none;visibility:visible;display:inline;overflow:visible;enable-background:accumulate" />
  </g>
</svg>
