<?xml version="1.0" encoding="UTF-8" standalone="no"?>
<!-- Created with Inkscape (http://www.inkscape.org/) -->

<svg
   xmlns:dc="http://purl.org/dc/elements/1.1/"
   xmlns:cc="http://creativecommons.org/ns#"
   xmlns:rdf="http://www.w3.org/1999/02/22-rdf-syntax-ns#"
   xmlns:svg="http://www.w3.org/2000/svg"
   xmlns="http://www.w3.org/2000/svg"
   xmlns:sodipodi="http://sodipodi.sourceforge.net/DTD/sodipodi-0.dtd"
   xmlns:inkscape="http://www.inkscape.org/namespaces/inkscape"
   id="svg3500"
   version="1.1"
   inkscape:version="0.91 r13725"
   width="120"
   height="120"
   viewBox="0 0 120 120"
   sodipodi:docname="delete.svg">
  <metadata
     id="metadata3506">
    <rdf:RDF>
      <cc:Work
         rdf:about="">
        <dc:format>image/svg+xml</dc:format>
        <dc:type
           rdf:resource="http://purl.org/dc/dcmitype/StillImage" />
        <dc:title></dc:title>
      </cc:Work>
    </rdf:RDF>
  </metadata>
  <defs
     id="defs3504" />
  <sodipodi:namedview
     pagecolor="#ffffff"
     bordercolor="#666666"
     borderopacity="1"
     objecttolerance="10"
     gridtolerance="10"
     guidetolerance="10"
     inkscape:pageopacity="0"
     inkscape:pageshadow="2"
     inkscape:window-width="640"
     inkscape:window-height="480"
     id="namedview3502"
     showgrid="false"
     inkscape:zoom="1.9666667"
     inkscape:cx="60"
     inkscape:cy="60"
     inkscape:window-x="0"
     inkscape:window-y="0"
     inkscape:window-maximized="0"
     inkscape:current-layer="svg3500" />
  <path
     style="fill:#000000"
     d="M 44.48831,106.03493 C 35.560668,102.85514 30.65756,99.808852 24.407407,93.558695 14.21935,83.370637 10,72.946999 10,57.966102 10,42.985205 14.21935,32.561567 24.407407,22.373509 34.595465,12.185452 45.019103,7.9661017 59.999999,7.9661017 c 14.9809,0 25.40454,4.2193503 35.59259,14.4074073 C 105.78065,32.561567 110,42.985205 110,57.966102 c 0,14.980897 -4.21935,25.404535 -14.407411,35.592593 -6.38682,6.386827 -11.24451,9.363225 -20.45104,12.530725 -7.326,2.52052 -23.504362,2.49176 -30.653239,-0.0545 z m 7.240802,-30.29675 8.270887,-8.227922 8.27089,8.227922 c 8.95693,8.910399 11.88662,10.070409 15.72911,6.227922 3.84249,-3.842487 2.68248,-6.772184 -6.22792,-15.729112 l -8.22792,-8.270888 8.22792,-8.270888 c 8.9104,-8.956928 10.07041,-11.886625 6.22792,-15.729112 -3.84249,-3.842487 -6.77218,-2.682477 -15.72911,6.227922 l -8.27089,8.227922 -8.270887,-8.227922 C 42.772184,31.283625 39.842487,30.123615 36,33.966102 c -3.842487,3.842487 -2.682477,6.772184 6.227922,15.729112 l 8.227922,8.270888 -8.227922,8.270888 C 33.317523,75.193918 32.157513,78.123615 36,81.966102 c 3.842487,3.842487 6.772184,2.682477 15.729112,-6.227922 z"
     id="path3510"
     inkscape:connector-curvature="0" />
</svg>
